<?xml version="1.0" encoding="iso-8859-1"?>
<!-- Generator: Adobe Illustrator 19.0.0, SVG Export Plug-In . SVG Version: 6.00 Build 0)  -->
<svg version="1.1" id="Capa_1" xmlns="http://www.w3.org/2000/svg" xmlns:xlink="http://www.w3.org/1999/xlink" x="0px" y="0px"
	 viewBox="0 0 512.002 512.002" style="enable-background:new 0 0 512.002 512.002;" xml:space="preserve">
<g>
	<g>
		<g>
			<path d="M491.095,245.704c-0.001-0.002-0.001-0.004-0.002-0.006c-0.001-0.002-0.002-0.004-0.002-0.006l-10.795-33.184
				c-3.785-11.637-16.331-18.024-27.971-14.24l-18.13,5.897l26.849-40.212c2.3-3.445,1.372-8.102-2.073-10.403
				c-3.446-2.301-8.103-1.372-10.403,2.073l-16.996,25.455c-9.843-2.212-21.943-3.075-30.739-2.323
				c-3.723-10.687-13.423-23.47-23.443-32.139l49.282-124.22c1.222-3.08,3.599-5.432,6.691-6.621
				c3.094-1.189,6.433-1.037,9.404,0.432l3.719,1.837c25.819,12.756,41.859,38.57,41.859,67.37c0,6.955-2.041,13.689-5.902,19.472
				l-18.002,26.963c-2.3,3.445-1.372,8.102,2.073,10.403c3.446,2.3,8.102,1.372,10.403-2.073l18.002-26.963
				c5.513-8.258,8.427-17.872,8.427-27.802c0-34.548-19.242-65.517-50.216-80.819l-3.719-1.837
				c-6.672-3.296-14.485-3.655-21.432-0.984c-6.947,2.672-12.506,8.172-15.251,15.091L361.675,145.55
				c-27.175-29.591-65.033-46.33-105.676-46.33s-78.501,16.739-105.676,46.33L99.273,16.866C96.528,9.947,90.97,4.447,84.023,1.775
				c-6.947-2.671-14.76-2.314-21.433,0.984l-3.718,1.837C27.896,19.898,8.655,50.866,8.655,85.414c0,9.93,2.914,19.543,8.428,27.802
				l60.724,90.95l-18.131-5.898c-5.636-1.833-11.651-1.362-16.934,1.327c-5.283,2.689-9.203,7.275-11.036,12.912l-10.796,33.186
				c0,0.001-0.001,0.003-0.002,0.004c0,0.001-0.001,0.003-0.001,0.004l-10.796,33.186c-1.834,5.637-1.362,11.652,1.327,16.935
				s7.275,9.203,12.913,11.036l46.542,15.14L51.643,387.03c-1.176,3.972,1.091,8.145,5.063,9.321c0.71,0.21,1.427,0.311,2.132,0.311
				c3.236,0,6.223-2.112,7.188-5.373l19.139-64.65l43.859,14.268l-33.58,113.425L51.949,438.84l5.296-17.89
				c1.176-3.972-1.091-8.146-5.062-9.321c-3.972-1.176-8.145,1.09-9.321,5.063L27.46,468.719
				c-4.249,14.352,3.415,29.674,17.448,34.882l17.855,6.625c3.197,1.186,6.56,1.775,9.92,1.775c4.398,0,8.789-1.009,12.783-3.007
				c7.044-3.523,12.367-9.876,14.602-17.428l2.771-9.362c101.66-15.747,204.666-15.747,306.326,0l2.771,9.362
				c2.235,7.552,7.557,13.905,14.602,17.428c3.994,1.998,8.384,3.007,12.784,3.007c3.358,0,6.722-0.588,9.92-1.774l17.855-6.625
				c14.033-5.207,21.697-20.529,17.448-34.882l-43.435-146.722l46.542-15.14c5.637-1.834,10.224-5.752,12.913-11.036
				s3.16-11.297,1.327-16.935L491.095,245.704z M85.684,487.306c-1.077,3.636-3.537,6.573-6.929,8.27
				c-3.392,1.696-7.217,1.904-10.773,0.585l-17.855-6.625c-6.662-2.472-10.301-9.747-8.283-16.56l5.841-19.731l43.496,15.492
				L85.684,487.306z M456.967,212.534c3.773-1.228,7.837,0.843,9.065,4.614l8.477,26.057L350.056,283.69l-3.079-9.467
				c27.271-10.161,51.805-26.935,71.315-49.108L456.967,212.534z M256.002,114.221c38.643,0,74.472,16.906,99.033,46.539
				c-10.255,19.618-26.595,35.47-46.352,45.181c2.039-5.792,3.161-12.013,3.161-18.494c0-30.792-25.05-55.842-55.842-55.842
				s-55.842,25.05-55.842,55.842c0,6.48,1.122,12.702,3.161,18.494c-19.755-9.711-36.096-25.563-46.351-45.181
				C181.529,131.127,217.359,114.221,256.002,114.221z M296.844,187.446c0,22.52-18.321,40.841-40.841,40.841
				s-40.841-18.321-40.841-40.841c0-22.52,18.321-40.841,40.841-40.841S296.844,164.926,296.844,187.446z M216.689,227.062
				c10.1,10.023,23.994,16.226,39.312,16.226c15.319,0,29.214-6.203,39.312-16.226c33.729-9.527,61.727-33.748,76.058-65.629
				c9.802,9.744,16.285,21.72,16.059,25.574c-0.15,2.563,1.05,5.013,3.133,6.513c2.082,1.5,4.817,1.819,7.201,0.864
				c2.523-1.011,13.848-1.374,24.758,0.247l-2.205,3.302c-3.707,5.552-7.723,10.827-12.01,15.815
				c-0.085,0.1-0.173,0.198-0.253,0.302c-19.425,22.498-44.454,39.054-72.293,48.21c-0.174,0.043-0.349,0.085-0.522,0.141
				c-0.247,0.08-0.486,0.172-0.719,0.275c-15.869,5.077-32.633,7.756-49.783,7.756h-57.477c-17.151,0-33.915-2.679-49.785-7.757
				c-0.232-0.103-0.472-0.195-0.719-0.275c-0.175-0.057-0.35-0.099-0.526-0.142c-27.838-9.157-52.865-25.711-72.289-48.209
				c-0.08-0.104-0.167-0.202-0.253-0.302c-4.286-4.989-8.302-10.263-12.01-15.815l-2.205-3.302
				c10.911-1.621,22.235-1.257,24.757-0.247c2.384,0.979,5.105,0.665,7.205-0.833c2.099-1.498,3.281-3.969,3.13-6.543
				c-0.226-3.854,6.258-15.831,16.059-25.574C154.963,193.315,182.96,217.536,216.689,227.062z M337.833,294.61
				c-1.775,4.698-6.31,9.18-13.121,9.18H187.291c-6.811,0-11.346-4.481-13.121-9.18l5.12-15.741
				c15.416,4.302,31.531,6.565,47.973,6.565h57.477c16.442,0,32.556-2.263,47.972-6.564L337.833,294.61z M29.558,104.887
				c-3.862-5.784-5.903-12.518-5.903-19.472c0-28.799,16.04-54.613,41.86-67.37l3.718-1.837c2.972-1.467,6.311-1.621,9.405-0.432
				c3.093,1.189,5.469,3.541,6.691,6.621l49.282,124.22c-10.02,8.668-19.72,21.453-23.443,32.139
				c-8.794-0.751-20.896,0.111-30.739,2.323L29.558,104.887z M45.973,217.148c1.227-3.77,5.294-5.84,9.063-4.614l38.676,12.582
				c19.51,22.172,44.044,38.947,71.315,49.108l-3.079,9.468L37.497,243.205L45.973,217.148z M28.993,292.592
				c-1.827-0.594-3.313-1.864-4.184-3.576c-0.872-1.712-1.024-3.661-0.43-5.488l8.477-26.057l124.451,40.484l-8.476,26.057
				c-0.594,1.827-1.864,3.313-3.576,4.184c-1.505,0.766-3.194,0.975-4.821,0.611c-0.081-0.024-0.16-0.055-0.243-0.077l-0.424-0.105
				L28.993,292.592z M107.542,466.315l36.236-122.403c2.85-0.231,5.657-1.01,8.282-2.347c5.282-2.689,9.203-7.274,11.036-12.913
				l5.444-16.736c5.088,4.32,11.643,6.873,18.751,6.873h137.421c7.108,0,13.663-2.554,18.751-6.873l5.444,16.736
				c1.833,5.637,5.752,10.223,11.036,12.913c2.625,1.337,5.431,2.116,8.282,2.347l36.236,122.403
				C305.885,451.745,206.118,451.745,107.542,466.315z M470.16,472.976c2.017,6.814-1.622,14.088-8.284,16.56l-17.855,6.625
				c-3.556,1.317-7.381,1.11-10.773-0.585c-3.392-1.697-5.852-4.633-6.929-8.27l-5.497-18.569l43.497-15.492L470.16,472.976z
				 M460.055,438.84l-43.496,15.492L382.98,340.907l43.859-14.268L460.055,438.84z M487.194,289.016
				c-0.872,1.711-2.357,2.981-4.185,3.576l-110.722,36.019l-0.474,0.121c-0.084,0.022-0.164,0.053-0.247,0.078
				c-1.626,0.363-3.313,0.152-4.817-0.613c-1.711-0.872-2.981-2.357-3.576-4.185l-8.477-26.056l124.451-40.484l8.477,26.057
				C488.219,285.355,488.066,287.304,487.194,289.016z"/>
			<path d="M256.002,156.664c-16.973,0-30.782,13.809-30.782,30.782s13.809,30.782,30.782,30.782s30.782-13.809,30.782-30.782
				C286.783,170.473,272.975,156.664,256.002,156.664z M256.002,203.226c-8.701,0-15.781-7.079-15.781-15.781
				s7.079-15.781,15.781-15.781s15.781,7.079,15.781,15.781C271.782,196.148,264.704,203.226,256.002,203.226z"/>
		</g>
	</g>
</g>
<g>
</g>
<g>
</g>
<g>
</g>
<g>
</g>
<g>
</g>
<g>
</g>
<g>
</g>
<g>
</g>
<g>
</g>
<g>
</g>
<g>
</g>
<g>
</g>
<g>
</g>
<g>
</g>
<g>
</g>
</svg>
