<?xml version="1.0" encoding="iso-8859-1"?>
<!-- Generator: Adobe Illustrator 19.0.0, SVG Export Plug-In . SVG Version: 6.00 Build 0)  -->
<svg version="1.1" id="Capa_1" xmlns="http://www.w3.org/2000/svg" xmlns:xlink="http://www.w3.org/1999/xlink" x="0px" y="0px"
	 viewBox="0 0 512.001 512.001" style="enable-background:new 0 0 512.001 512.001;" xml:space="preserve">
<g>
	<g>
		<path d="M511.543,242.083l-26.018-71.032c-1.045-2.853-3.707-4.793-6.742-4.915c-34.62-1.391-71.324,14.019-100.724,42.264
			c-1.788,1.718-3.523,3.465-5.213,5.231c-2.748-8.186-6.352-16.046-10.783-23.507c4.266-2.962,8.415-6.266,12.371-9.973
			c3.119-2.918,6.1-6.073,8.861-9.378c2.656-3.179,2.232-7.908-0.946-10.564c-3.179-2.653-7.909-2.232-10.564,0.947
			c-2.37,2.836-4.926,5.541-7.603,8.046c-22.86,21.422-53.466,27.977-73.626,29.848c1.413-3.9,2.187-8.104,2.187-12.486
			c0-3.789-0.577-7.445-1.647-10.887c31.418-3.355,49.197-15.87,57.369-23.576c13.203-12.449,20.356-28.838,21.866-50.098
			c0.827-11.462-2.297-22.646-8.796-31.491c-2.773-3.773-6.05-7.023-9.765-9.709c0.546-0.101,1.096-0.194,1.65-0.281
			c12.333-1.921,20.81,0.583,25.203,7.444c2.228,3.481,6.851,4.504,10.337,2.288c0.045-0.028,4.669-2.884,10.954-3.992
			c2.833-0.5,5.484-0.566,7.967-0.194c-7.539,5.08-14.011,13.657-14.011,27.235c0,15.559-2.405,29.768-7.149,42.232
			c-1.474,3.871,0.47,8.204,4.341,9.678c3.871,1.474,8.204-0.471,9.677-4.342c5.396-14.175,8.131-30.18,8.131-47.569
			c0-16.01,15.523-18.297,17.245-18.5c2.854-0.297,5.289-2.195,6.271-4.892c0.983-2.695,0.341-5.716-1.653-7.779
			c-14.212-14.709-32.419-12.396-43.773-7.649c-20.105-20.302-58.345-2.193-60.084-1.353c-2.94,1.421-4.624,4.581-4.161,7.814
			c0.462,3.232,2.963,5.795,6.184,6.335c8.813,1.479,15.727,5.555,20.547,12.115c4.39,5.974,6.494,13.62,5.922,21.537
			c-1.232,17.339-6.856,30.507-17.195,40.254c-4.052,3.821-8.633,6.925-13.436,9.449c-20.354-13.71-44.049-20.961-68.74-20.961
			c-28.069,0-54.514,9.196-76.476,26.596c-3.247,2.572-3.793,7.29-1.221,10.536c1.48,1.869,3.671,2.843,5.883,2.843
			c1.631,0,3.274-0.529,4.652-1.621c19.284-15.278,42.508-23.354,67.161-23.354c18.004,0,35.403,4.388,51.021,12.761
			c-9.37,2.525-18.206,3.508-24.368,3.872c-6.701-7.068-16.166-11.489-26.651-11.489c-20.261,0-36.744,16.483-36.744,36.744
			s16.483,36.744,36.744,36.744c8.977,0,17.208-3.24,23.596-8.607c14.986-0.343,43.179-3.053,69.612-16.83
			c5.425,9.155,9.422,18.993,11.941,29.335c-2.972,3.854-5.699,7.758-8.172,11.678H159.02c-2.476-3.926-5.208-7.836-8.186-11.695
			c3.366-13.819,9.353-26.668,17.825-38.216c2.45-3.34,1.729-8.034-1.611-10.483c-3.339-2.452-8.034-1.729-10.483,1.61
			c-7.571,10.321-13.405,21.556-17.419,33.524c-1.689-1.764-3.421-3.508-5.208-5.225c-29.4-28.246-66.108-43.653-100.724-42.265
			c-3.035,0.122-5.697,2.063-6.742,4.915L0.452,242.083c-0.804,2.194-0.521,4.64,0.735,6.61c1.256,1.972,3.377,3.246,5.706,3.444
			c1.328,0.113,32.672,3.171,46.244,37.563c1.131,2.867,3.9,4.747,6.976,4.747c0.033,0,0.066,0,0.099-0.001l0.877-0.011
			l-15.792,49.063c-0.734,2.282-0.334,4.777,1.078,6.715c1.412,1.938,3.665,3.083,6.062,3.083h8.027l-15.166,47.113
			c-0.734,2.281-0.334,4.777,1.078,6.715c1.412,1.938,3.665,3.083,6.062,3.083h8.026l-15.165,47.102
			c-0.735,2.282-0.334,4.777,1.078,6.715c1.412,1.938,3.664,3.084,6.062,3.084H167.51c4.142,0,7.5-3.357,7.5-7.5v-21.35
			c79.989-19.607,135.16-10.113,161.982-2.161v23.511c0,4.143,3.358,7.5,7.5,7.5h61.611c4.142,0,7.5-3.357,7.5-7.5
			s-3.358-7.5-7.5-7.5h-54.111v-41.899h83.786l13.49,41.899h-12.096c-4.142,0-7.5,3.357-7.5,7.5s3.358,7.5,7.5,7.5h22.39
			c2.397,0,4.65-1.146,6.062-3.084c1.412-1.938,1.813-4.433,1.078-6.715l-15.165-47.102h8.026c2.397,0,4.65-1.146,6.062-3.083
			c1.412-1.937,1.812-4.434,1.078-6.715l-15.166-47.113h8.027c2.397,0,4.65-1.146,6.062-3.083c1.412-1.937,1.812-4.433,1.078-6.715
			l-15.792-49.063l0.877,0.011c0.033,0.001,0.066,0.001,0.099,0.001c3.075,0,5.844-1.88,6.976-4.747
			c13.571-34.392,44.916-37.449,46.209-37.561c2.343-0.178,4.467-1.443,5.738-3.419
			C512.078,246.746,512.351,244.289,511.543,242.083z M255.998,208.308c-11.99,0.001-21.744-9.753-21.744-21.744
			c0-11.99,9.754-21.744,21.744-21.744c11.989,0,21.744,9.754,21.744,21.744C277.742,198.554,267.988,208.308,255.998,208.308z
			 M17.56,238.989l21.219-57.932c29.1,0.376,59.723,14.101,84.765,38.159c19.07,18.321,32.667,41.006,35.78,58.931l-87.789,1.149
			c-0.048-0.001-0.095,0.002-0.143,0.002l-6.37,0.083C52.34,252.143,30.195,242.412,17.56,238.989z M160.005,452.108H62.729
			l13.49-41.899h83.786V452.108z M160.006,395.207H70.849c-0.018,0-0.036,0-0.054,0h-8.066l13.491-41.91h83.786V395.207z
			 M160.006,338.295H70.837c-0.009,0-0.017,0-0.026,0h-8.083l14.184-44.068l83.094-1.088V338.295z M336.988,420.491
			c-59.634-16.386-124.052-6.593-161.982,2.327V308.857h161.982V420.491z M336.996,285.417c-0.001,0.044-0.007,0.086-0.007,0.129
			v8.312H175.007v-12.172c0-0.799-0.127-1.567-0.359-2.289c-0.886-8.058-3.452-16.701-7.471-25.511h177.642
			C339.779,264.932,337.019,275.721,336.996,285.417z M441.21,395.207c-0.023,0-0.046,0-0.069,0h-89.152v-41.91h83.786l13.491,41.91
			H441.21z M441.178,338.297c-0.005,0-0.01,0-0.015,0h-89.175v-45.156l83.094,1.088l14.184,44.068H441.178z M446.971,279.383
			l-6.365-0.083c-0.05,0-0.099-0.003-0.149-0.002l-87.788-1.149c3.112-17.925,16.71-40.609,35.78-58.931
			c25.043-24.061,55.664-37.785,84.765-38.159l21.219,57.932C481.8,242.412,459.655,252.143,446.971,279.383z"/>
	</g>
</g>
<g>
	<g>
		<path d="M442.477,205.17c-12.313,0-22.331,10.018-22.331,22.331c0,12.313,10.018,22.332,22.331,22.332
			c12.313,0,22.331-10.019,22.331-22.332C464.808,215.188,454.791,205.17,442.477,205.17z M442.477,234.833
			c-4.042,0-7.331-3.289-7.331-7.332c0-4.042,3.289-7.331,7.331-7.331c4.042,0,7.331,3.289,7.331,7.331
			C449.808,231.544,446.52,234.833,442.477,234.833z"/>
	</g>
</g>
<g>
	<g>
		<path d="M69.517,205.17c-12.313,0-22.331,10.018-22.331,22.331c0,12.313,10.018,22.332,22.331,22.332
			c12.313,0,22.331-10.019,22.331-22.332C91.848,215.188,81.83,205.17,69.517,205.17z M69.517,234.833
			c-4.042,0-7.331-3.289-7.331-7.332c0-4.042,3.289-7.331,7.331-7.331c4.042,0,7.331,3.289,7.331,7.331
			C76.848,231.544,73.559,234.833,69.517,234.833z"/>
	</g>
</g>
<g>
	<g>
		<path d="M372.316,313.85c-4.142,0-7.5,3.357-7.5,7.5v1.544c0,4.142,3.358,7.5,7.5,7.5s7.5-3.357,7.5-7.5v-1.544
			C379.816,317.207,376.458,313.85,372.316,313.85z"/>
	</g>
</g>
<g>
	<g>
		<path d="M372.316,369.179c-4.142,0-7.5,3.357-7.5,7.5v1.544c0,4.142,3.358,7.5,7.5,7.5s7.5-3.357,7.5-7.5v-1.544
			C379.816,372.536,376.458,369.179,372.316,369.179z"/>
	</g>
</g>
<g>
	<g>
		<path d="M372.316,424.507c-4.142,0-7.5,3.357-7.5,7.5v1.544c0,4.143,3.358,7.5,7.5,7.5s7.5-3.357,7.5-7.5v-1.544
			C379.816,427.864,376.458,424.507,372.316,424.507z"/>
	</g>
</g>
<g>
	<g>
		<path d="M139.679,313.85c-4.142,0-7.5,3.357-7.5,7.5v1.544c0,4.142,3.358,7.5,7.5,7.5s7.5-3.357,7.5-7.5v-1.544
			C147.179,317.207,143.821,313.85,139.679,313.85z"/>
	</g>
</g>
<g>
	<g>
		<path d="M139.679,369.179c-4.142,0-7.5,3.357-7.5,7.5v1.544c0,4.142,3.358,7.5,7.5,7.5s7.5-3.357,7.5-7.5v-1.544
			C147.179,372.536,143.821,369.179,139.679,369.179z"/>
	</g>
</g>
<g>
	<g>
		<path d="M139.679,424.507c-4.142,0-7.5,3.357-7.5,7.5v1.544c0,4.143,3.358,7.5,7.5,7.5s7.5-3.357,7.5-7.5v-1.544
			C147.179,427.864,143.821,424.507,139.679,424.507z"/>
	</g>
</g>
<g>
</g>
<g>
</g>
<g>
</g>
<g>
</g>
<g>
</g>
<g>
</g>
<g>
</g>
<g>
</g>
<g>
</g>
<g>
</g>
<g>
</g>
<g>
</g>
<g>
</g>
<g>
</g>
<g>
</g>
</svg>
