<?xml version="1.0" encoding="iso-8859-1"?>
<!-- Generator: Adobe Illustrator 19.0.0, SVG Export Plug-In . SVG Version: 6.00 Build 0)  -->
<svg version="1.1" id="Capa_1" xmlns="http://www.w3.org/2000/svg" xmlns:xlink="http://www.w3.org/1999/xlink" x="0px" y="0px"
	 viewBox="0 0 512.001 512.001" style="enable-background:new 0 0 512.001 512.001;" xml:space="preserve">
<path style="fill:#7E2F1E;" d="M148.993,437.766c0,0,121.81-41.776,214.009,0V285.542H148.993V437.766z"/>
<path style="fill:#C2705F;" d="M371.747,252.928h-231.5c0-7.172,0.65-14.19,1.899-20.991c1.228-6.718,3.044-13.241,5.377-19.494
	c16.419-43.964,58.794-75.264,108.474-75.264c18.947,0,36.822,4.551,52.602,12.621c21.692,11.084,39.432,28.813,50.517,50.507
	c2.012,3.922,3.798,7.977,5.356,12.147c2.343,6.254,4.149,12.766,5.377,19.484C371.097,238.738,371.747,245.756,371.747,252.928z"/>
<g>
	<path style="fill:#99584A;" d="M371.747,252.928h-34.066c5.934-13.612,15.098-27.565,26.791-40.475
		c2.343,6.254,4.149,12.766,5.377,19.484C371.097,238.738,371.747,245.756,371.747,252.928z"/>
	<path style="fill:#99584A;" d="M174.314,252.928h-34.066c0-7.172,0.65-14.19,1.899-20.991c1.228-6.718,3.044-13.241,5.377-19.494
		C159.216,225.353,168.38,239.306,174.314,252.928z"/>
	<path style="fill:#99584A;" d="M359.115,200.307c-11.084-21.692-28.824-39.422-50.517-50.507
		c-6.428,2.068-14.153,3.723-23.261,4.416c-7.76-7.045-18.057-11.344-29.339-11.344c-24.092,0-43.692,19.6-43.692,43.692
		s19.6,43.693,43.692,43.693c9.774,0,18.807-3.227,26.094-8.67C299.816,220.951,331.006,217.175,359.115,200.307z"/>
	<path style="fill:#99584A;" d="M371.747,252.928h-231.5c0-7.172,0.65-14.19,1.899-20.991h227.702
		C371.097,238.738,371.747,245.756,371.747,252.928z"/>
</g>
<rect x="131.752" y="246.382" style="fill:#F5AB4D;" width="248.483" height="54.975"/>
<g>
	<path style="fill:#DA861B;" d="M181.951,285.54v15.82h-50.197v-54.975h39.474C178.132,260.009,181.951,273.518,181.951,285.54z"/>
	<path style="fill:#DA861B;" d="M380.24,246.386v54.975h-50.197v-15.82c0-12.023,3.818-25.532,10.722-39.154H380.24z"/>
</g>
<polygon style="fill:#C0311F;" points="459.561,459.609 344.493,459.609 344.493,395.49 438.921,395.49 445.897,417.152 "/>
<polygon style="fill:#A0150A;" points="445.897,417.152 344.493,417.152 344.493,395.49 438.921,395.49 "/>
<polygon style="fill:#DF412D;" points="459.561,402.704 344.493,402.704 344.493,338.586 438.921,338.586 445.897,360.248 "/>
<polygon style="fill:#C0311F;" points="445.897,360.248 344.493,360.248 344.493,338.586 438.921,338.586 "/>
<polygon style="fill:#FD6149;" points="459.561,345.8 344.493,345.8 344.493,281.681 438.921,281.681 445.237,301.309 "/>
<polygon style="fill:#DF412D;" points="445.237,301.309 344.493,299.988 344.493,281.681 438.921,281.681 "/>
<path style="fill:#FD6149;" d="M344.493,285.542c0-42.262,61.936-114.797,133.989-111.911l26.018,71.033
	c0,0-37.041,2.811-52.618,42.286L344.493,285.542z"/>
<circle style="fill:#F5AB4D;" cx="442.475" cy="227.502" r="14.831"/>
<polygon style="fill:#C0311F;" points="52.434,459.609 167.502,459.609 167.502,395.49 73.073,395.49 66.097,417.152 "/>
<polygon style="fill:#A0150A;" points="66.097,417.152 167.502,417.152 167.502,395.49 73.073,395.49 "/>
<polygon style="fill:#DF412D;" points="52.434,402.704 167.502,402.704 167.502,338.586 73.073,338.586 66.097,360.248 "/>
<polygon style="fill:#C0311F;" points="66.097,360.248 167.502,360.248 167.502,338.586 73.073,338.586 "/>
<polygon style="fill:#FD6149;" points="52.434,345.8 167.502,345.8 167.502,281.681 73.073,281.681 66.758,301.309 "/>
<polygon style="fill:#DF412D;" points="66.758,301.309 167.502,299.988 167.502,281.681 73.073,281.681 "/>
<path style="fill:#FD6149;" d="M167.502,285.542c0-42.262-61.936-114.797-133.989-111.911L7.494,244.662
	c0,0,37.041,2.811,52.618,42.286L167.502,285.542z"/>
<g>
	<circle style="fill:#F5AB4D;" cx="69.521" cy="227.502" r="14.831"/>
	<path style="fill:#F5AB4D;" d="M425.339,67.343c0,0-23.973,2.487-23.973,25.955c0,34.077-10.784,61.456-32.054,81.384
		c-23.024,21.569-53.231,28.978-74.243,31.424c-7.957,0.929-14.592,1.146-19.03,1.146c-3.375,0-5.459-0.124-5.882-0.155
		l1.238-19.071l1.187-19.082c0.206,0.01,9.845,0.516,22.735-1.424c14.85-2.229,34.004-7.688,47.999-20.877
		c11.734-11.053,18.163-25.893,19.536-45.182c0.671-9.422-1.765-18.896-7.358-26.502c-4.85-6.605-12.714-12.962-25.356-15.077
		c0,0,39.876-19.267,54.8,4.045C384.936,63.927,407.93,49.314,425.339,67.343z"/>
</g>
<path style="fill:#DA861B;" d="M299.692,186.561c0,7.028-1.661,13.664-4.623,19.546c-7.957,0.929-14.592,1.146-19.03,1.146
	c-3.375,0-5.459-0.124-5.882-0.155l1.238-19.071l1.187-19.082c0.206,0.01,9.845,0.516,22.735-1.424
	C298.123,173.279,299.692,179.739,299.692,186.561z"/>
<circle style="fill:#FFE451;" cx="255.993" cy="186.562" r="29.24"/>
<path d="M511.543,242.083l-26.018-71.032c-1.045-2.853-3.707-4.793-6.742-4.915c-34.62-1.391-71.324,14.019-100.724,42.264
	c-1.788,1.718-3.523,3.465-5.213,5.231c-2.748-8.186-6.352-16.046-10.783-23.507c4.266-2.962,8.415-6.266,12.371-9.973
	c3.119-2.918,6.1-6.073,8.861-9.378c2.656-3.179,2.232-7.908-0.946-10.564c-3.179-2.653-7.909-2.232-10.564,0.947
	c-2.37,2.836-4.926,5.541-7.603,8.046c-22.86,21.422-53.466,27.977-73.626,29.848c1.413-3.9,2.187-8.104,2.187-12.486
	c0-3.789-0.577-7.445-1.647-10.887c31.418-3.355,49.197-15.87,57.369-23.576c13.203-12.449,20.356-28.838,21.866-50.098
	c0.827-11.462-2.297-22.646-8.796-31.491c-2.773-3.773-6.05-7.023-9.765-9.709c0.546-0.101,1.096-0.194,1.65-0.281
	c12.333-1.921,20.81,0.583,25.203,7.444c2.228,3.481,6.851,4.504,10.337,2.288c0.045-0.028,4.669-2.884,10.954-3.992
	c2.833-0.5,5.484-0.566,7.967-0.194c-7.539,5.08-14.011,13.657-14.011,27.235c0,15.559-2.405,29.768-7.149,42.232
	c-1.474,3.871,0.47,8.204,4.341,9.678c3.871,1.474,8.204-0.471,9.677-4.342c5.396-14.175,8.131-30.18,8.131-47.569
	c0-16.01,15.523-18.297,17.245-18.5c2.854-0.297,5.289-2.195,6.271-4.892c0.983-2.695,0.341-5.716-1.653-7.779
	c-14.212-14.709-32.419-12.396-43.774-7.649c-20.105-20.302-58.345-2.193-60.084-1.353c-2.94,1.421-4.624,4.581-4.161,7.814
	c0.462,3.232,2.963,5.795,6.184,6.335c8.813,1.479,15.727,5.555,20.547,12.115c4.39,5.974,6.494,13.62,5.922,21.537
	c-1.232,17.339-6.856,30.507-17.195,40.254c-4.052,3.821-8.633,6.925-13.436,9.449c-20.354-13.71-44.049-20.961-68.74-20.961
	c-28.069,0-54.514,9.196-76.476,26.596c-3.247,2.572-3.793,7.29-1.221,10.536c1.48,1.869,3.671,2.843,5.883,2.843
	c1.631,0,3.274-0.529,4.652-1.621c19.284-15.278,42.508-23.354,67.161-23.354c18.004,0,35.403,4.388,51.021,12.761
	c-9.37,2.525-18.206,3.508-24.368,3.872c-6.701-7.068-16.166-11.489-26.651-11.489c-20.261,0-36.744,16.483-36.744,36.744
	s16.483,36.744,36.744,36.744c8.977,0,17.208-3.24,23.596-8.607c14.986-0.343,43.179-3.053,69.612-16.83
	c5.425,9.155,9.422,18.993,11.941,29.335c-2.972,3.854-5.699,7.758-8.172,11.678H159.02c-2.476-3.926-5.208-7.836-8.186-11.695
	c3.366-13.819,9.353-26.668,17.825-38.216c2.45-3.34,1.729-8.034-1.611-10.483c-3.339-2.452-8.034-1.729-10.483,1.61
	c-7.571,10.321-13.405,21.556-17.419,33.524c-1.689-1.764-3.421-3.508-5.208-5.225c-29.4-28.246-66.108-43.653-100.724-42.264
	c-3.035,0.122-5.697,2.063-6.742,4.915L0.452,242.083c-0.804,2.194-0.521,4.64,0.735,6.61c1.256,1.972,3.377,3.246,5.706,3.444
	c1.328,0.113,32.672,3.171,46.244,37.563c1.131,2.867,3.9,4.747,6.976,4.747c0.033,0,0.066,0,0.099-0.001l0.877-0.011
	l-15.792,49.063c-0.734,2.282-0.334,4.777,1.078,6.715c1.412,1.938,3.665,3.083,6.062,3.083h8.027l-15.166,47.113
	c-0.734,2.281-0.334,4.777,1.078,6.715c1.412,1.938,3.665,3.083,6.062,3.083h8.026l-15.165,47.102
	c-0.735,2.282-0.334,4.777,1.078,6.715c1.412,1.938,3.664,3.084,6.062,3.084H167.51c4.142,0,7.5-3.357,7.5-7.5v-21.35
	c79.989-19.607,135.16-10.113,161.982-2.161v23.511c0,4.143,3.358,7.5,7.5,7.5h61.611c4.142,0,7.5-3.357,7.5-7.5
	c0-4.143-3.358-7.5-7.5-7.5h-54.111v-41.899h83.786l13.49,41.899h-12.096c-4.142,0-7.5,3.357-7.5,7.5c0,4.143,3.358,7.5,7.5,7.5
	h22.39c2.397,0,4.65-1.146,6.062-3.084c1.412-1.938,1.813-4.433,1.078-6.715l-15.165-47.102h8.026c2.397,0,4.65-1.146,6.062-3.083
	c1.412-1.937,1.812-4.434,1.078-6.715l-15.166-47.113h8.027c2.397,0,4.65-1.146,6.062-3.083c1.412-1.937,1.812-4.433,1.078-6.715
	l-15.792-49.063l0.877,0.011c0.033,0.001,0.066,0.001,0.099,0.001c3.075,0,5.844-1.88,6.976-4.747
	c13.571-34.392,44.916-37.449,46.209-37.56c2.343-0.178,4.467-1.443,5.738-3.419C512.078,246.746,512.351,244.289,511.543,242.083z
	 M234.254,186.564c0-11.99,9.754-21.744,21.744-21.744c11.989,0,21.744,9.754,21.744,21.744c0,11.99-9.754,21.744-21.744,21.744
	C244.008,208.309,234.254,198.555,234.254,186.564z M344.819,253.885c-5.04,11.046-7.8,21.835-7.823,31.531
	c-0.001,0.044-0.007,0.086-0.007,0.129v8.312H175.007v-12.172c0-0.799-0.127-1.567-0.359-2.289
	c-0.886-8.058-3.452-16.701-7.471-25.511L344.819,253.885L344.819,253.885z M17.56,238.989l21.219-57.932
	c29.1,0.376,59.723,14.101,84.765,38.159c19.07,18.321,32.667,41.005,35.78,58.931l-87.789,1.149
	c-0.048-0.001-0.095,0.002-0.143,0.002l-6.37,0.083C52.34,252.142,30.195,242.412,17.56,238.989z M160.006,293.14v45.156H70.837
	c-0.009,0-0.017,0-0.026,0h-8.083l14.184-44.068L160.006,293.14z M160.006,353.297v41.91H70.849c-0.018,0-0.036,0-0.054,0h-8.066
	l13.491-41.91H160.006z M62.729,452.108l13.49-41.899h83.786v41.899H62.729z M175.006,422.818V308.857h161.982v111.634
	C277.354,404.105,212.935,413.898,175.006,422.818z M449.266,395.207h-8.056c-0.023,0-0.046,0-0.069,0h-89.152v-41.91h83.786
	L449.266,395.207z M449.266,338.296h-8.088c-0.005,0-0.01,0-0.015,0h-89.175v-45.156l83.094,1.088L449.266,338.296z
	 M446.971,279.383l-6.365-0.083c-0.05,0-0.099-0.003-0.149-0.002l-87.788-1.149c3.112-17.925,16.71-40.608,35.78-58.931
	c25.043-24.061,55.664-37.785,84.765-38.159l21.219,57.932C481.8,242.412,459.655,252.142,446.971,279.383z"/>
<path d="M442.477,205.17c-12.313,0-22.331,10.018-22.331,22.331c0,12.313,10.018,22.332,22.331,22.332
	c12.313,0,22.331-10.019,22.331-22.332C464.808,215.188,454.791,205.17,442.477,205.17z M442.477,234.833
	c-4.042,0-7.331-3.289-7.331-7.332c0-4.042,3.289-7.331,7.331-7.331c4.042,0,7.331,3.289,7.331,7.331
	C449.808,231.544,446.52,234.833,442.477,234.833z"/>
<path d="M91.848,227.501c0-12.313-10.018-22.331-22.331-22.331s-22.331,10.018-22.331,22.331c0,12.313,10.018,22.332,22.331,22.332
	S91.848,239.814,91.848,227.501z M62.186,227.501c0-4.042,3.289-7.331,7.331-7.331s7.331,3.289,7.331,7.331
	c0,4.043-3.289,7.332-7.331,7.332S62.186,231.544,62.186,227.501z"/>
<path d="M372.316,330.394c4.142,0,7.5-3.357,7.5-7.5v-1.544c0-4.143-3.358-7.5-7.5-7.5c-4.142,0-7.5,3.357-7.5,7.5v1.544
	C364.816,327.036,368.174,330.394,372.316,330.394z"/>
<path d="M372.316,385.723c4.142,0,7.5-3.357,7.5-7.5v-1.544c0-4.143-3.358-7.5-7.5-7.5c-4.142,0-7.5,3.357-7.5,7.5v1.544
	C364.816,382.365,368.174,385.723,372.316,385.723z"/>
<path d="M364.816,432.007v1.544c0,4.143,3.358,7.5,7.5,7.5c4.142,0,7.5-3.357,7.5-7.5v-1.544c0-4.143-3.358-7.5-7.5-7.5
	C368.174,424.507,364.816,427.864,364.816,432.007z"/>
<path d="M139.679,330.394c4.142,0,7.5-3.357,7.5-7.5v-1.544c0-4.143-3.358-7.5-7.5-7.5s-7.5,3.357-7.5,7.5v1.544
	C132.179,327.036,135.537,330.394,139.679,330.394z"/>
<path d="M139.679,385.723c4.142,0,7.5-3.357,7.5-7.5v-1.544c0-4.143-3.358-7.5-7.5-7.5s-7.5,3.357-7.5,7.5v1.544
	C132.179,382.365,135.537,385.723,139.679,385.723z"/>
<path d="M139.679,424.507c-4.142,0-7.5,3.357-7.5,7.5v1.544c0,4.143,3.358,7.5,7.5,7.5s7.5-3.357,7.5-7.5v-1.544
	C147.179,427.864,143.821,424.507,139.679,424.507z"/>
<g>
</g>
<g>
</g>
<g>
</g>
<g>
</g>
<g>
</g>
<g>
</g>
<g>
</g>
<g>
</g>
<g>
</g>
<g>
</g>
<g>
</g>
<g>
</g>
<g>
</g>
<g>
</g>
<g>
</g>
</svg>
