<?xml version="1.0" encoding="iso-8859-1"?>
<!-- Generator: Adobe Illustrator 19.0.0, SVG Export Plug-In . SVG Version: 6.00 Build 0)  -->
<svg version="1.1" id="Capa_1" xmlns="http://www.w3.org/2000/svg" xmlns:xlink="http://www.w3.org/1999/xlink" x="0px" y="0px"
	 viewBox="0 0 512 512" style="enable-background:new 0 0 512 512;" xml:space="preserve">
<path style="fill:#7E2F1E;" d="M144.552,445.309c0,0,126.869-43.512,222.897,0V286.763H144.551L144.552,445.309z"/>
<path style="fill:#C2705F;" d="M376.557,252.796H135.443c0-7.47,0.677-14.779,1.978-21.863c1.279-6.997,3.171-13.791,5.6-20.304
	c17.101-45.789,61.235-78.39,112.979-78.39c19.735,0,38.351,4.74,54.786,13.146c22.594,11.544,41.071,30.01,52.615,52.604
	c2.096,4.085,3.956,8.309,5.578,12.651c2.44,6.514,4.321,13.296,5.6,20.293C375.88,238.016,376.557,245.325,376.557,252.796z"/>
<g>
	<path style="fill:#99584A;" d="M376.557,252.796h-35.481c6.18-14.177,15.725-28.71,27.903-42.156
		c2.44,6.514,4.321,13.296,5.6,20.293C375.88,238.016,376.557,245.325,376.557,252.796z"/>
	<path style="fill:#99584A;" d="M170.924,252.796h-35.481c0-7.47,0.677-14.779,1.978-21.863c1.279-6.997,3.171-13.791,5.6-20.304
		C155.199,224.075,164.744,238.607,170.924,252.796z"/>
	<path style="fill:#99584A;" d="M363.401,197.988c-11.544-22.594-30.021-41.06-52.615-52.604
		c-6.695,2.153-14.741,3.878-24.228,4.599c-8.083-7.338-18.807-11.816-30.558-11.816c-25.092,0-45.506,20.414-45.506,45.507
		s20.414,45.508,45.506,45.508c10.18,0,19.589-3.361,27.178-9.03C301.639,219.49,334.123,215.557,363.401,197.988z"/>
	<path style="fill:#99584A;" d="M376.557,252.796H135.443c0-7.47,0.677-14.779,1.978-21.863h237.158
		C375.88,238.016,376.557,245.325,376.557,252.796z"/>
</g>
<rect x="126.6" y="245.98" style="fill:#F5AB4D;" width="258.81" height="57.26"/>
<g>
	<path style="fill:#DA861B;" d="M178.878,286.761v16.478h-52.281v-57.258h41.114C174.901,260.169,178.878,274.239,178.878,286.761z"
		/>
	<path style="fill:#DA861B;" d="M385.403,245.981v57.258h-52.281v-16.478c0-12.522,3.977-26.592,11.168-40.78L385.403,245.981
		L385.403,245.981z"/>
</g>
<path style="fill:#C0311F;" d="M456.583,468.059h-100.08c-4.602,0-8.332-3.731-8.332-8.332v-58.449h98.35l7.266,22.561
	l10.728,33.335C466.246,462.553,462.234,468.059,456.583,468.059z"/>
<polygon style="fill:#A0150A;" points="453.787,423.839 348.17,423.839 348.17,401.278 446.521,401.278 "/>
<path style="fill:#DF412D;" d="M456.583,408.791H348.17V342.01h98.35l7.266,22.561l10.728,33.335
	C466.246,403.285,462.234,408.791,456.583,408.791z"/>
<polygon style="fill:#C0311F;" points="453.787,364.571 348.17,364.571 348.17,342.01 446.521,342.01 "/>
<path style="fill:#FD6149;" d="M456.582,349.523H348.17v-66.781h98.35l6.578,20.444l11.414,35.451
	C466.245,344.016,462.233,349.523,456.582,349.523z"/>
<polygon style="fill:#DF412D;" points="453.099,303.185 348.17,301.81 348.17,282.741 446.521,282.741 "/>
<path style="fill:#FD6149;" d="M348.17,286.763c0-42.829,61.074-115.512,133.504-116.633c3.57-0.055,6.798,2.116,8.026,5.469
	l21.788,59.483c1.67,4.559-0.889,9.569-5.563,10.883c-11.66,3.279-32.006,12.415-43.796,37.386c-1.397,2.96-4.379,4.848-7.652,4.805
	L348.17,286.763z"/>
<circle style="fill:#F5AB4D;" cx="450.23" cy="226.31" r="15.447"/>
<path style="fill:#C0311F;" d="M55.417,468.059h100.08c4.602,0,8.332-3.731,8.332-8.332v-58.449h-98.35l-7.266,22.561
	l-10.728,33.335C45.754,462.553,49.766,468.059,55.417,468.059z"/>
<polygon style="fill:#A0150A;" points="58.213,423.839 163.83,423.839 163.83,401.278 65.479,401.278 "/>
<path style="fill:#DF412D;" d="M55.417,408.791H163.83V342.01H65.48l-7.266,22.561l-10.728,33.335
	C45.754,403.285,49.766,408.791,55.417,408.791z"/>
<polygon style="fill:#C0311F;" points="58.213,364.571 163.83,364.571 163.83,342.01 65.479,342.01 "/>
<path style="fill:#FD6149;" d="M55.418,349.523H163.83v-66.781H65.48l-6.578,20.444l-11.414,35.451
	C45.755,344.016,49.767,349.523,55.418,349.523z"/>
<polygon style="fill:#DF412D;" points="58.901,303.185 163.83,301.81 163.83,282.741 65.479,282.741 "/>
<path style="fill:#FD6149;" d="M163.83,286.763c0-42.829-61.075-115.512-133.504-116.633c-3.57-0.055-6.798,2.116-8.026,5.469
	L0.512,235.081c-1.67,4.559,0.889,9.569,5.563,10.883c11.66,3.279,32.006,12.415,43.796,37.386c1.397,2.96,4.379,4.848,7.652,4.805
	L163.83,286.763z"/>
<g>
	<circle style="fill:#F5AB4D;" cx="61.775" cy="226.31" r="15.447"/>
	<path style="fill:#F5AB4D;" d="M427.004,54.982c2.327,1.556,1.865,5.093-0.788,5.99c-7.394,2.5-18.811,9.036-18.811,25.564
		c0,35.492-11.232,64.008-33.385,84.764c-23.98,22.465-55.442,30.182-77.326,32.73c-8.287,0.967-15.199,1.193-19.82,1.193
		c-3.515,0-5.686-0.129-6.127-0.161l1.29-19.863l1.236-19.874c0.215,0.011,10.254,0.537,23.679-1.483
		c15.467-2.322,35.417-8.008,49.992-21.745c12.221-11.512,18.918-26.968,20.347-47.058c0.699-9.814-1.838-19.681-7.664-27.603
		c-3.712-5.054-9.118-9.969-16.947-13.095c-2.94-1.174-2.81-5.39,0.198-6.377c13.24-4.344,36.609-8.9,47.414,7.982
		C390.294,55.945,409.854,43.513,427.004,54.982z"/>
</g>
<path style="fill:#DA861B;" d="M301.51,183.671c0,7.32-1.73,14.231-4.815,20.358c-8.287,0.967-15.199,1.193-19.82,1.193
	c-3.515,0-5.686-0.129-6.127-0.161l1.29-19.863l1.236-19.874c0.215,0.011,10.254,0.537,23.679-1.483
	C299.876,169.838,301.51,176.566,301.51,183.671z"/>
<circle style="fill:#FFE451;" cx="256" cy="183.68" r="30.459"/>
<g>
	<path style="fill:#A0150A;" d="M377.149,333.478c-4.314,0-7.812-3.497-7.812-7.812v-1.608c0-4.315,3.497-7.812,7.812-7.812
		c4.314,0,7.812,3.497,7.812,7.812v1.608C384.961,329.981,381.464,333.478,377.149,333.478z"/>
	<path style="fill:#A0150A;" d="M377.149,391.104c-4.314,0-7.812-3.497-7.812-7.812v-1.608c0-4.315,3.497-7.812,7.812-7.812
		c4.314,0,7.812,3.497,7.812,7.812v1.608C384.961,387.607,381.464,391.104,377.149,391.104z"/>
	<path style="fill:#A0150A;" d="M377.149,451.193c-4.314,0-7.812-3.497-7.812-7.812v-1.608c0-4.315,3.497-7.812,7.812-7.812
		c4.314,0,7.812,3.497,7.812,7.812v1.608C384.961,447.696,381.464,451.193,377.149,451.193z"/>
	<path style="fill:#A0150A;" d="M134.851,333.478c-4.314,0-7.812-3.497-7.812-7.812v-1.608c0-4.315,3.497-7.812,7.812-7.812
		c4.314,0,7.812,3.497,7.812,7.812v1.608C142.662,329.981,139.165,333.478,134.851,333.478z"/>
	<path style="fill:#A0150A;" d="M134.851,391.104c-4.314,0-7.812-3.497-7.812-7.812v-1.608c0-4.315,3.497-7.812,7.812-7.812
		c4.314,0,7.812,3.497,7.812,7.812v1.608C142.662,387.607,139.165,391.104,134.851,391.104z"/>
	<path style="fill:#A0150A;" d="M134.851,448.73c-4.314,0-7.812-3.497-7.812-7.812v-1.608c0-4.315,3.497-7.812,7.812-7.812
		c4.314,0,7.812,3.497,7.812,7.812v1.608C142.662,445.233,139.165,448.73,134.851,448.73z"/>
</g>
<g>
</g>
<g>
</g>
<g>
</g>
<g>
</g>
<g>
</g>
<g>
</g>
<g>
</g>
<g>
</g>
<g>
</g>
<g>
</g>
<g>
</g>
<g>
</g>
<g>
</g>
<g>
</g>
<g>
</g>
</svg>
