<?xml version="1.0" encoding="iso-8859-1"?>
<!-- Generator: Adobe Illustrator 19.0.0, SVG Export Plug-In . SVG Version: 6.00 Build 0)  -->
<svg version="1.1" id="Capa_1" xmlns="http://www.w3.org/2000/svg" xmlns:xlink="http://www.w3.org/1999/xlink" x="0px" y="0px"
	 viewBox="0 0 512.002 512.002" style="enable-background:new 0 0 512.002 512.002;" xml:space="preserve">
<circle style="fill:#C06376;" cx="256.006" cy="242.893" r="136.178"/>
<path style="opacity:0.1;enable-background:new    ;" d="M280.258,375.713c-75.207,0-136.175-60.967-136.175-136.175
	c0-64.584,44.961-118.666,105.289-132.656c-72.128,3.457-129.546,63.028-129.546,136.012c0,75.207,60.967,136.175,136.175,136.175
	c10.624,0,20.962-1.218,30.885-3.519C284.69,375.656,282.481,375.713,280.258,375.713z"/>
<path style="fill:#485358;" d="M383.428,255.892H128.576L61.7,481.794l0,0c128.309-25.195,260.294-25.195,388.603,0l0,0
	L383.428,255.892z"/>
<path style="fill:#C06376;" d="M34.651,470.847l73.387-247.899l53.975,32.944L92.876,489.436
	c-3.458,11.682-16.082,17.996-27.504,13.758l-17.855-6.625C37.13,492.714,31.506,481.471,34.651,470.847z"/>
<path style="fill:#F3CE72;" d="M42.74,443.523l-8.089,27.325c-3.145,10.623,2.479,21.866,12.866,25.72l17.855,6.625
	c11.422,4.238,24.045-2.076,27.504-13.758l7.513-25.381L42.74,443.523z"/>
<path style="opacity:0.1;enable-background:new    ;" d="M118.013,244.38l3.847-12.996l-13.822-8.436L34.651,470.847
	c-3.145,10.623,2.479,21.866,12.866,25.72l11.952,4.435c-8.631-4.662-13.04-14.817-10.18-24.478l40.557-137.001l43.243,14.067
	l28.166-95.142L118.013,244.38z"/>
<path style="fill:#C06376;" d="M477.352,470.847l-73.388-247.899l-53.974,32.944l69.138,233.544
	c3.458,11.682,16.082,17.996,27.504,13.758l17.855-6.625C474.872,492.714,480.497,481.471,477.352,470.847z"/>
<path style="fill:#F3CE72;" d="M469.263,443.523l8.089,27.325c3.145,10.623-2.479,21.866-12.866,25.72l-17.855,6.625
	c-11.422,4.238-24.045-2.076-27.504-13.758l-7.513-25.381L469.263,443.523z"/>
<polygon style="opacity:0.1;enable-background:new    ;" points="408.875,239.538 437.041,334.682 378.913,353.591 350.746,258.448 
	"/>
<g>
	<path style="fill:#E1EAEA;" d="M329.699,255.481H182.305l-13.62,23.567c-8.279,14.327,2.059,32.243,18.606,32.243h137.421
		c16.547,0,26.886-17.916,18.606-32.243L329.699,255.481z"/>
	<path style="fill:#E1EAEA;" d="M137.446,335.76L26.673,299.725c-7.716-2.51-11.937-10.801-9.427-18.517l21.593-66.38
		c2.51-7.716,10.801-11.937,18.517-9.427l110.773,36.035c7.716,2.51,11.937,10.801,9.427,18.517l-21.593,66.38
		C153.453,334.05,145.163,338.27,137.446,335.76z"/>
</g>
<path style="opacity:0.1;enable-background:new    ;" d="M168.13,241.435l-94.965-30.893l12.281,18.393
	c19.957,29.892,48.506,52.238,81.164,64.672l10.948-33.656C180.067,252.236,175.846,243.946,168.13,241.435z"/>
<rect x="24.484" y="263.057" transform="matrix(-0.951 -0.3093 0.3093 -0.951 106.3615 557.9775)" style="opacity:0.05;enable-background:new    ;" width="145.859" height="15"/>
<path style="fill:#E1EAEA;" d="M374.557,335.76l110.773-36.035c7.716-2.51,11.937-10.801,9.427-18.517l-21.593-66.38
	c-2.51-7.716-10.801-11.937-18.517-9.427l-110.773,36.035c-7.716,2.51-11.937,10.801-9.427,18.517l21.593,66.38
	C358.55,334.05,366.84,338.27,374.557,335.76z"/>
<path style="opacity:0.1;enable-background:new    ;" d="M343.873,241.435c-7.716,2.51-11.937,10.801-9.427,18.517l10.948,33.656
	c32.658-12.434,61.205-34.78,81.164-64.672l12.281-18.393L343.873,241.435z"/>
<rect x="407.14" y="197.638" transform="matrix(-0.3094 -0.9509 0.9509 -0.3094 285.6408 748.5807)" style="opacity:0.05;enable-background:new    ;" width="15" height="145.864"/>
<path style="fill:#F3CE72;" d="M426.557,202.099l62.125-93.047c4.672-6.997,7.165-15.223,7.165-23.636l0,0
	c0-31.446-17.846-60.166-46.039-74.094l-3.719-1.837C436.017,4.508,423.843,9.19,419.7,19.633l-53.242,134.204
	c-16.814,42.381-57.791,70.209-103.386,70.209h-14.144c-45.595,0-86.572-27.828-103.386-70.209L92.302,19.631
	C88.158,9.189,75.985,4.507,65.912,9.483l-3.719,1.837C34,25.248,16.154,53.969,16.154,85.414l0,0
	c0,8.413,2.493,16.639,7.165,23.636l62.125,93.047c31.636,47.383,84.845,75.835,141.818,75.835h57.477
	C341.713,277.933,394.922,249.481,426.557,202.099z"/>
<path style="opacity:0.15;enable-background:new    ;" d="M394.92,187.446c0.531-9.069-12.752-28.413-26.546-38.439l-1.915,4.828
	c-16.814,42.381-57.791,70.209-103.386,70.209h-14.144c-45.595,0-86.572-27.828-103.386-70.209l-1.915-4.828
	c-13.794,10.028-27.076,29.372-26.544,38.439c-5.833-2.395-26.558-1.938-39.922,2.246l8.283,12.407
	c31.636,47.383,84.845,75.835,141.818,75.835h57.477c56.972,0,110.182-28.453,141.817-75.835l8.283-12.407
	C421.476,185.507,400.753,185.051,394.92,187.446z"/>
<circle style="opacity:0.1;enable-background:new    ;" cx="256.006" cy="205.441" r="48.343"/>
<circle style="fill:#F3CE72;" cx="256.006" cy="187.45" r="48.343"/>
<circle style="opacity:0.1;enable-background:new    ;" cx="256.006" cy="187.45" r="23.281"/>
<path d="M491.094,245.704c-0.001-0.002-0.001-0.004-0.002-0.006s-0.002-0.004-0.002-0.006l-10.795-33.184
	c-1.833-5.637-5.752-10.223-11.036-12.913c-5.284-2.689-11.298-3.162-16.934-1.327l-18.131,5.898l26.85-40.213
	c2.3-3.445,1.372-8.102-2.073-10.403c-3.446-2.301-8.103-1.372-10.403,2.073l-16.996,25.455c-9.843-2.212-21.943-3.075-30.739-2.323
	c-3.723-10.687-13.423-23.47-23.443-32.139l49.282-124.22c1.222-3.08,3.599-5.432,6.691-6.621c3.094-1.189,6.433-1.037,9.404,0.432
	l3.719,1.837c25.819,12.756,41.859,38.57,41.859,67.37c0,6.955-2.041,13.689-5.902,19.472l-18.002,26.963
	c-2.3,3.445-1.372,8.102,2.073,10.403c3.446,2.3,8.102,1.372,10.403-2.073l18.002-26.963c5.513-8.258,8.427-17.872,8.427-27.802
	c0-34.548-19.242-65.517-50.216-80.819l-3.719-1.837c-6.672-3.296-14.485-3.655-21.432-0.984
	c-6.947,2.672-12.506,8.172-15.251,15.091L361.676,145.55C334.501,115.959,296.643,99.22,256,99.22s-78.501,16.739-105.676,46.33
	L99.273,16.866C96.528,9.947,90.969,4.447,84.022,1.775c-6.947-2.671-14.76-2.314-21.433,0.984l-3.718,1.837
	C27.896,19.898,8.655,50.865,8.655,85.414c0,9.93,2.914,19.543,8.428,27.802l60.724,90.95l-18.131-5.898
	c-5.636-1.833-11.651-1.362-16.934,1.327c-5.283,2.689-9.203,7.275-11.036,12.912l-10.796,33.186c0,0.001-0.001,0.003-0.002,0.004
	c0,0.001-0.001,0.003-0.001,0.004l-10.796,33.186c-1.834,5.637-1.362,11.652,1.327,16.935s7.275,9.203,12.913,11.036l46.542,15.14
	L51.642,387.03c-1.176,3.972,1.091,8.145,5.063,9.321c0.71,0.21,1.427,0.311,2.132,0.311c3.236,0,6.223-2.112,7.188-5.373
	l19.139-64.65l43.859,14.268l-33.58,113.425L51.948,438.84l5.296-17.89c1.176-3.972-1.091-8.145-5.062-9.321
	c-3.972-1.176-8.145,1.09-9.321,5.063L27.46,468.719c-4.249,14.352,3.415,29.674,17.448,34.882l17.855,6.625
	c3.197,1.186,6.56,1.775,9.92,1.775c4.398,0,8.79-1.009,12.783-3.007c7.044-3.523,12.367-9.876,14.602-17.428l2.771-9.362
	c101.661-15.747,204.667-15.747,306.326,0l2.771,9.362c2.235,7.552,7.557,13.905,14.602,17.428
	c3.994,1.998,8.383,3.007,12.783,3.007c3.358,0,6.722-0.588,9.92-1.774l17.855-6.625c14.033-5.207,21.697-20.529,17.448-34.882
	l-43.434-146.722l46.542-15.14c5.637-1.834,10.224-5.752,12.913-11.036s3.16-11.297,1.327-16.935L491.094,245.704z M85.683,487.306
	c-1.077,3.636-3.537,6.573-6.929,8.27c-3.392,1.696-7.217,1.904-10.773,0.585l-17.855-6.625c-6.662-2.472-10.301-9.747-8.283-16.56
	l5.841-19.731l43.496,15.492L85.683,487.306z M456.966,212.534c3.773-1.228,7.837,0.843,9.065,4.614l8.477,26.057L350.056,283.69
	l-3.079-9.468c27.271-10.161,51.805-26.936,71.315-49.108L456.966,212.534z M256.002,114.221c38.643,0,74.472,16.906,99.033,46.539
	c-10.255,19.618-26.595,35.47-46.352,45.181c2.039-5.792,3.161-12.013,3.161-18.494c0-30.792-25.05-55.842-55.842-55.842
	s-55.842,25.05-55.842,55.842c0,6.48,1.122,12.702,3.161,18.494c-19.755-9.711-36.096-25.562-46.351-45.181
	C181.529,131.127,217.359,114.221,256.002,114.221z M296.843,187.446c0,22.52-18.321,40.841-40.841,40.841
	s-40.841-18.321-40.841-40.841s18.321-40.841,40.841-40.841S296.843,164.926,296.843,187.446z M216.689,227.062
	c10.1,10.023,23.994,16.226,39.312,16.226c15.319,0,29.214-6.203,39.312-16.226c33.729-9.527,61.727-33.748,76.058-65.629
	c9.802,9.744,16.285,21.72,16.059,25.574c-0.15,2.563,1.05,5.013,3.133,6.513c2.082,1.5,4.817,1.819,7.201,0.864
	c2.523-1.011,13.848-1.374,24.758,0.247l-2.205,3.302c-3.707,5.552-7.723,10.827-12.01,15.815c-0.085,0.1-0.173,0.198-0.253,0.302
	c-19.425,22.498-44.454,39.055-72.295,48.211c-0.174,0.043-0.348,0.084-0.52,0.14c-0.246,0.08-0.486,0.172-0.718,0.274
	c-15.87,5.078-32.634,7.757-49.785,7.757H227.26c-17.151,0-33.915-2.679-49.785-7.757c-0.232-0.103-0.472-0.195-0.719-0.275
	c-0.175-0.057-0.35-0.099-0.526-0.142c-27.838-9.157-52.865-25.711-72.289-48.209c-0.08-0.104-0.167-0.202-0.253-0.302
	c-4.286-4.989-8.302-10.263-12.01-15.815l-2.205-3.302c10.911-1.621,22.235-1.257,24.757-0.247c2.384,0.979,5.105,0.665,7.205-0.833
	c2.099-1.498,3.281-3.969,3.13-6.543c-0.226-3.854,6.258-15.831,16.059-25.574C154.962,193.315,182.96,217.536,216.689,227.062z
	 M337.832,294.61c-1.775,4.698-6.31,9.181-13.121,9.181H187.291c-6.811,0-11.346-4.481-13.121-9.181l5.12-15.741
	c15.416,4.302,31.531,6.565,47.973,6.565h57.477c16.442,0,32.556-2.263,47.972-6.565L337.832,294.61z M29.558,104.887
	c-3.862-5.784-5.903-12.518-5.903-19.472c0-28.799,16.04-54.613,41.86-67.37l3.718-1.837c2.972-1.467,6.311-1.621,9.405-0.432
	s5.469,3.541,6.691,6.621l49.282,124.22c-10.02,8.668-19.72,21.453-23.443,32.139c-8.794-0.751-20.896,0.111-30.739,2.323
	L29.558,104.887z M45.973,217.148c1.227-3.77,5.294-5.84,9.064-4.614l38.676,12.582c19.51,22.172,44.044,38.947,71.315,49.108
	l-3.079,9.468L37.496,243.205L45.973,217.148z M28.993,292.592c-1.827-0.594-3.313-1.864-4.184-3.576
	c-0.872-1.712-1.024-3.661-0.43-5.488l8.476-26.057l124.451,40.484l-8.476,26.057c-0.594,1.827-1.864,3.313-3.576,4.184
	c-1.505,0.766-3.194,0.975-4.821,0.611c-0.081-0.024-0.16-0.055-0.243-0.077l-0.424-0.105L28.993,292.592z M107.541,466.315
	l36.236-122.403c2.85-0.231,5.657-1.01,8.282-2.347c5.282-2.689,9.203-7.274,11.036-12.913l5.444-16.736
	c5.088,4.32,11.643,6.873,18.751,6.873h137.421c7.108,0,13.663-2.554,18.751-6.873l5.444,16.736
	c1.833,5.637,5.753,10.224,11.036,12.913c2.625,1.337,5.431,2.116,8.282,2.347l36.236,122.403
	C305.885,451.745,206.118,451.745,107.541,466.315z M470.16,472.976c2.017,6.814-1.622,14.088-8.283,16.56l-17.855,6.625
	c-3.556,1.317-7.382,1.111-10.773-0.585c-3.392-1.696-5.852-4.633-6.929-8.27l-5.497-18.569l43.496-15.492L470.16,472.976z
	 M460.054,438.84l-43.496,15.492L382.98,340.908l43.859-14.268L460.054,438.84z M487.194,289.016
	c-0.872,1.711-2.357,2.981-4.185,3.576l-110.726,36.02l-0.47,0.12c-0.084,0.022-0.165,0.053-0.248,0.078
	c-1.625,0.363-3.311,0.153-4.815-0.613c-1.712-0.872-2.982-2.357-3.576-4.185l-8.477-26.057l124.451-40.484l8.477,26.057
	C488.219,285.355,488.066,287.304,487.194,289.016z"/>
<g>
</g>
<g>
</g>
<g>
</g>
<g>
</g>
<g>
</g>
<g>
</g>
<g>
</g>
<g>
</g>
<g>
</g>
<g>
</g>
<g>
</g>
<g>
</g>
<g>
</g>
<g>
</g>
<g>
</g>
</svg>
