<?xml version="1.0" encoding="iso-8859-1"?>
<!-- Generator: Adobe Illustrator 19.0.0, SVG Export Plug-In . SVG Version: 6.00 Build 0)  -->
<svg version="1.1" id="Capa_1" xmlns="http://www.w3.org/2000/svg" xmlns:xlink="http://www.w3.org/1999/xlink" x="0px" y="0px"
	 viewBox="0 0 423.356 423.356" style="enable-background:new 0 0 423.356 423.356;" xml:space="preserve">
<path style="fill:#2E2E3A;" d="M211.677,193.848c0,0-118.89,1.596-186.321,128.111c0,0,84.933,60.602,186.321,60.602
	s186.322-60.602,186.322-60.602C330.567,195.445,211.677,193.848,211.677,193.848z"/>
<path style="fill:#BF4343;" d="M299.072,293.289c0,0-28.686,32.347-87.395,36.381c-58.708-4.034-87.395-36.381-87.395-36.381
	c-37.714,57.402-31.411,128.692-31.411,128.692h118.806h118.806C330.483,421.982,336.786,350.692,299.072,293.289z"/>
<g>
	<path style="fill:#872626;" d="M211.677,329.67v92.312h118.806c0,0,6.304-71.29-31.411-128.692
		C299.072,293.289,270.386,325.636,211.677,329.67z"/>
	<path style="fill:#872626;" d="M179.838,324.263c-5.621,17.095-14.495,50.781-16.686,97.719h10.469
		c2.254-45.998,11.161-79.147,16.46-95.245C186.518,326.006,183.109,325.173,179.838,324.263z"/>
	<path style="fill:#872626;" d="M141.511,307.198c-5.928,17.041-17.329,57.056-18.323,114.784h10.446
		c0.982-53.619,11.337-91.964,17.107-109.331C147.334,310.821,144.256,308.981,141.511,307.198z"/>
</g>
<g>
	<path style="fill:#BF4343;" d="M243.516,324.263c5.62,17.095,14.495,50.781,16.687,97.719h-10.469
		c-2.254-45.998-11.161-79.147-16.461-95.245C236.835,326.006,240.245,325.173,243.516,324.263z"/>
	<path style="fill:#BF4343;" d="M281.843,307.198c5.928,17.041,17.329,57.056,18.322,114.784H289.72
		c-0.982-53.619-11.337-91.964-17.107-109.331C276.02,310.821,279.098,308.981,281.843,307.198z"/>
</g>
<path style="fill:#FFFFFF;" d="M299.072,293.289c0,0-28.686,32.347-87.395,36.381c-58.708-4.034-87.395-36.381-87.395-36.381
	c-9.09,13.835-15.604,28.473-20.284,42.73c7.843,7.94,39.918,36.487,107.679,51.287c67.76-14.8,99.836-43.347,107.679-51.287
	C314.675,321.762,308.161,307.124,299.072,293.289z"/>
<path style="fill:#875858;" d="M278.536,217.259l-10.295-9.581c-13.611,26.412-33.78,38.678-45.997,43.983v-1.863h-10.567H201.11
	v1.863c-12.217-5.305-32.386-17.571-45.998-43.983l-10.294,9.582c0,0,10.226,30.333,46.269,47.32
	c-4.849,1.704-8.657,4.628-11.254,7.152c-2.479,2.409-2.605,6.337-0.319,8.929c2.724,3.088,7.612,2.876,10.063-0.432
	c5.387-7.27,10.03-9.703,11.861-10.436c0.733,2.039,2.664,3.506,4.955,3.506c2.918,0,5.284-2.365,5.284-5.283
	c0,2.918,2.365,5.283,5.283,5.283c2.291,0,4.223-1.467,4.955-3.506c1.831,0.732,6.475,3.166,11.861,10.436
	c2.451,3.308,7.34,3.52,10.064,0.432c2.286-2.592,2.16-6.52-0.318-8.929c-2.599-2.524-6.405-5.448-11.255-7.152
	C268.311,247.592,278.536,217.259,278.536,217.259z"/>
<path style="fill:#BF4343;" d="M211.677,52.387L211.677,52.387L211.677,52.387c-45.591,0-82.55,36.959-82.55,82.55v45.079h82.55
	h82.551v-45.079C294.228,89.346,257.269,52.387,211.677,52.387z"/>
<path style="fill:#F6EBE6;" d="M211.677,145.303h-56.565v62.375c0,6.747,2.177,13.362,6.369,18.649
	c12.436,15.685,27.666,25.28,34.968,29.311c2.65,1.463,5.616,2.216,8.644,2.216h6.584h6.585c3.026,0,5.993-0.753,8.644-2.216
	c7.302-4.03,22.531-13.626,34.968-29.311c4.192-5.287,6.368-11.902,6.368-18.649v-62.374L211.677,145.303L211.677,145.303z"/>
<path style="fill:#BC9595;" d="M155.112,145.303v3.729l110.11,71.893c1.98-4.104,3.02-8.641,3.02-13.249v-62.374h-56.565
	L155.112,145.303L155.112,145.303z"/>
<path style="fill:#2E2E3A;" d="M196.012,198.033c1.347,3.335-2.742,6.055-5.321,3.548c-0.446-0.434-0.917-0.959-1.414-1.59
	c0,0-4.682-6.938-12.781-5.144c-0.56,0.124-0.94-0.537-0.584-0.986c1.092-1.375,3.291-3.324,7.174-3.744
	c4.672-0.505,9.343,1.664,11.796,5.672C195.294,196.461,195.679,197.208,196.012,198.033z"/>
<path style="fill:#E46967;" d="M155.112,161.063c0,0-20.728,25.683-57.565-2.994c-3.513-2.735-8.657-0.139-8.514,4.311
	c0.383,11.874,2.218,31.233,9.268,50.296c5.378,14.544,21.877,22.205,36.306,16.521c7.56-2.977,15.158-8.451,20.505-18.277V161.063z
	"/>
<path style="fill:#FFBA40;" d="M91.637,187.605c0.695,3.936,1.569,8.028,2.651,12.192c8.309,2.942,18.715,5.511,29.79,5.511
	c10.168,0,20.889-2.18,31.034-8.202v-12.785C133.077,201.756,106.078,193.984,91.637,187.605z"/>
<path style="fill:#E46967;" d="M71.201,223.282c10.545,10.184,31.098,28.42,59.699,46.402c6.351,3.994,8.141,12.43,3.969,18.666
	c-13.593,20.322-38.669,67.308-35.331,133.632H20.102c-10.804,0-19.68-8.554-20.001-19.353
	c-0.981-32.975,4.254-103.721,56.066-177.928C59.659,219.699,66.813,219.044,71.201,223.282z"/>
<g>
	<path style="fill:#BF4343;" d="M109.631,255.722c-11.978,18.188-47.914,80.029-47.142,166.26h10.443
		c-0.687-82.113,33.941-142.635,45.289-160.231C115.251,259.725,112.382,257.711,109.631,255.722z"/>
	<path style="fill:#BF4343;" d="M88.436,239.242c-2.88-2.407-5.559-4.713-7.979-6.859c-16.508,20.744-64.355,89.969-59.66,189.599
		h10.458C26.697,327.178,72.764,259.385,88.436,239.242z"/>
</g>
<g>
	<path style="fill:#FFBA40;" d="M8.227,329.67c-0.911,3.725-1.743,7.383-2.472,10.951c15.764,10.214,50.699,29.046,94.025,29.046
		c0.995,0,2.009-0.044,3.013-0.065c0.641-3.594,1.356-7.091,2.133-10.497C58.977,360.739,21.327,338.533,8.227,329.67z"/>
	<path style="fill:#FFBA40;" d="M130.863,269.66c-28.561-17.962-49.091-36.174-59.638-46.356c-4.4-4.248-11.601-3.555-15.102,1.461
		c-7.814,11.198-14.513,22.306-20.346,33.228c9.123,12.443,38.35,47.039,85.467,54.338c4.849-10.057,9.696-18.104,13.601-23.943
		C139.028,282.129,137.234,273.668,130.863,269.66z"/>
</g>
<g>
	<circle style="fill:#FFFFFF;" cx="99.117" cy="282.298" r="6.852"/>
	<circle style="fill:#FFFFFF;" cx="69.837" cy="260.238" r="6.852"/>
</g>
<path style="fill:#FFBA40;" d="M323.787,1.416c-33.331,4.987-40.752,30.547-40.752,30.547c-13.349-7.365-22.733-4.28-28.208-0.477
	c-2.525,1.754-1.811,5.625,1.182,6.333c14.363,3.4,17.357,18.971,17.357,18.971c5.109,47.93-9.623,63.303-19.762,68.233
	c-4.121,2.004-8.957-0.868-9.29-5.438c-1.153-15.805-14.313-28.038-30.159-28.038h-2.478h-2.479
	c-15.846,0-29.005,12.233-30.159,28.038c-0.334,4.571-5.169,7.442-9.291,5.438c-10.139-4.93-24.872-20.304-19.761-68.233
	c0,0,2.994-15.571,17.357-18.971c2.992-0.708,3.706-4.578,1.181-6.333c-5.474-3.803-14.859-6.888-28.208,0.477
	c0,0-7.421-25.56-40.752-30.547c-3.519-0.526-5.356,4.02-2.467,6.096c11.328,8.139,27.145,23.492,28.034,46.186
	c0.072,1.844-0.064,3.673-0.247,5.51c-1.661,16.712-19.619,101.102,86.791,104.047c106.408-2.945,88.451-87.334,86.791-104.047
	c-0.184-1.837-0.32-3.666-0.248-5.51c0.89-22.694,16.707-38.047,28.035-46.186C329.144,5.436,327.306,0.89,323.787,1.416z"/>
<circle style="fill:#FFFFFF;" cx="211.677" cy="122.498" r="16.09"/>
<path style="fill:#2E2E3A;" d="M227.342,198.033c-1.347,3.335,2.741,6.055,5.321,3.548c0.445-0.434,0.917-0.959,1.414-1.59
	c0,0,4.682-6.938,12.78-5.144c0.56,0.124,0.94-0.537,0.584-0.986c-1.092-1.375-3.291-3.324-7.175-3.744
	c-4.672-0.505-9.342,1.664-11.796,5.672C228.06,196.461,227.675,197.208,227.342,198.033z"/>
<path style="fill:#BF4343;" d="M268.241,161.063c0,0,20.729,25.683,57.566-2.994c3.513-2.735,8.656-0.139,8.514,4.311
	c-0.383,11.874-2.219,31.233-9.269,50.296c-5.378,14.544-21.878,22.205-36.306,16.521c-7.56-2.977-15.158-8.451-20.506-18.277
	v-49.857H268.241z"/>
<path style="fill:#2E2E3A;" d="M227.566,233.949c-2.182-3.272-8.271-9.162-13.846-11.398c-1.312-0.526-2.774-0.526-4.086,0
	c-5.575,2.236-11.664,8.126-13.847,11.398c-0.629,0.944,0.344,2.246,1.249,1.561c4.618-3.498,9.987-5.729,12.763-6.743
	c1.219-0.446,2.536-0.446,3.754,0c2.776,1.015,8.146,3.245,12.764,6.743C227.222,236.196,228.197,234.894,227.566,233.949z"/>
<g>
	<path id="SVGCleanerId_0" style="fill:#DDDDDD;" d="M319.356,336.02c-4.681-14.258-11.194-28.896-20.284-42.73
		c0,0-28.686,32.347-87.395,36.381v57.637C279.437,372.507,311.513,343.96,319.356,336.02z"/>
</g>
<g>
	<path id="SVGCleanerId_0_1_" style="fill:#DDDDDD;" d="M319.356,336.02c-4.681-14.258-11.194-28.896-20.284-42.73
		c0,0-28.686,32.347-87.395,36.381v57.637C279.437,372.507,311.513,343.96,319.356,336.02z"/>
</g>
<g>
	<path id="SVGCleanerId_0_2_" style="fill:#DDDDDD;" d="M319.356,336.02c-4.681-14.258-11.194-28.896-20.284-42.73
		c0,0-28.686,32.347-87.395,36.381v57.637C279.437,372.507,311.513,343.96,319.356,336.02z"/>
</g>
<path style="fill:#FFBA40;" d="M331.717,187.605c-0.694,3.936-1.569,8.028-2.651,12.192c-8.309,2.942-18.715,5.511-29.79,5.511
	c-10.169,0-20.889-2.18-31.034-8.202v-12.785C290.277,201.756,317.277,193.984,331.717,187.605z"/>
<path style="fill:#E46967;" d="M352.154,223.282c-10.545,10.184-31.098,28.42-59.699,46.402c-6.352,3.994-8.141,12.43-3.97,18.666
	c13.593,20.322,38.669,67.308,35.331,133.632h79.436c10.805,0,19.68-8.554,20.002-19.353c0.981-32.975-4.254-103.721-56.066-177.928
	C363.695,219.699,356.54,219.044,352.154,223.282z"/>
<g>
	<path style="fill:#BF4343;" d="M304.126,262.034c11.52,17.935,45.791,78.244,45.107,159.947h10.442
		c0.769-85.798-34.794-147.433-46.95-165.966C309.972,258.002,307.096,260.013,304.126,262.034z"/>
	<path style="fill:#BF4343;" d="M334.323,239.242c2.881-2.407,5.559-4.713,7.98-6.859c16.508,20.744,64.354,89.969,59.658,189.599
		h-10.457C396.063,327.178,349.995,259.385,334.323,239.242z"/>
</g>
<g>
	<path style="fill:#FFBA40;" d="M415.126,329.67c0.911,3.725,1.743,7.383,2.473,10.951c-15.764,10.214-50.699,29.046-94.025,29.046
		c-0.994,0-2.009-0.044-3.013-0.065c-0.642-3.594-1.356-7.091-2.133-10.497C364.376,360.739,402.027,338.533,415.126,329.67z"/>
	<path style="fill:#FFBA40;" d="M292.491,269.66c28.561-17.962,49.091-36.174,59.639-46.356c4.4-4.248,11.601-3.555,15.102,1.461
		c7.814,11.198,14.513,22.306,20.346,33.228c-9.123,12.443-38.35,47.039-85.467,54.338c-4.85-10.057-9.697-18.104-13.602-23.943
		C284.326,282.129,286.12,273.668,292.491,269.66z"/>
</g>
<g>
	<circle style="fill:#FFFFFF;" cx="324.237" cy="282.298" r="6.852"/>
	<circle style="fill:#FFFFFF;" cx="353.517" cy="260.238" r="6.852"/>
	<path style="fill:#FFFFFF;" d="M236.388,380.885c7.064-2.145,13.644-4.42,19.734-6.773l-6.396-51.711
		c-6.076,1.98-12.736,3.694-19.952,5.006L236.388,380.885z"/>
	<path style="fill:#FFFFFF;" d="M270.712,367.944c2.829-1.303,5.526-2.611,8.096-3.918l-6.496-51.212
		c-2.518,1.343-5.214,2.676-8.09,3.974L270.712,367.944z"/>
</g>
<g>
</g>
<g>
</g>
<g>
</g>
<g>
</g>
<g>
</g>
<g>
</g>
<g>
</g>
<g>
</g>
<g>
</g>
<g>
</g>
<g>
</g>
<g>
</g>
<g>
</g>
<g>
</g>
<g>
</g>
</svg>
